<svg width="304" height="227" viewBox="0 0 304 227" fill="none" xmlns="http://www.w3.org/2000/svg">
<path d="M2.5 2.99902L1 62.999C9.74951 81.7104 12.6122 93.881 16 116.999L31.5 178.499C35.3954 191.214 38.5 197.999 49 204.999C70 217.499 118 222.999 170.5 222.999L300 225.999M95.1487 178.499L78.5 167.499C71.1626 163.033 64.6393 166.098 62.3069 171.499M95.1487 178.499L106.5 185.999C116.407 179.163 123.5 178.999 137 178.999L175.5 180.499C190.319 180.731 197.311 188.298 197.815 196.336M95.1487 178.499L120 147.999M95.1487 178.499C98.9502 164.35 100.5 144.499 98.5 140.499C90.1107 122.036 82.9901 111.881 67.5 93.999C55.4584 82.243 50.3595 74.5452 44 58.999C41.1751 50.6625 40.2967 45.8945 45.5 36.499C46.9463 39.9475 48.11 42.0043 49.5 42.7355M120 147.999L128.5 124.499C129.206 121.885 129.447 119.142 129.371 116.499M120 147.999C127.203 147.717 131.939 144.239 140.5 137.5C148.513 131.171 155.037 129.851 168.5 129.5M96.5 57.999C96.5 57.999 96.4122 68.5205 99 70.499C101.588 72.4775 120.7 93.7373 124.188 100.999M96.5 57.999L97.5 42.999M96.5 57.999C91.0215 51.0959 86.9042 46.845 81.0051 42.999M73 38.499C72.5 43.499 70.2924 44.7914 67.5 41.999C65.5 39.999 55.5 40.7103 53.5 41.999C51.8531 43.0602 50.605 43.3168 49.5 42.7355M73 38.499C75.462 22.9106 70.5 4.99902 61.5 4.49902L51 3.89902M73 38.499C76.0742 40.028 78.6782 41.482 81.0051 42.999M62.3069 171.499C60.9837 174.563 61.0092 178.379 63 181.999L74.5 203.499C103.337 200.439 108 214.999 175.5 215.499C190.264 215.608 198.399 205.656 197.815 196.336M62.3069 171.499L28.5 87.499C22.5 73.499 22.2297 54.0791 28.5 32.499L35.5 12.499C38 5.99902 39 3.49902 44 3.49902L51 3.89902M49.5 42.7355C56.1804 27.513 56.7681 19.007 51 3.89902M97.5 42.999H81.0051M97.5 42.999L101 30.999M101 30.999L94 15.499L80 18.999M101 30.999L105 21.499C106.269 18.9609 107.481 17.5157 109.384 16.999M113.5 43.499H119H122.5L122.524 42.6474M113.5 43.499C117.479 33.5734 118.385 27.9141 115.5 17.499M113.5 43.499C111.412 43.858 112 44.999 112.5 46.999L118.5 64.999C119.689 69.459 123.5 72.499 125.5 75.499L142.5 102.999M115.5 17.499L113.5 16.999C111.804 16.7119 110.479 16.7014 109.384 16.999M115.5 17.499C119.725 18.3327 123 22.499 123 25.499L122.524 42.6474M142.5 102.999L124.188 100.999M142.5 102.999L153.5 104.499M124.188 100.999C125.02 101.952 125.5 102.499 125.5 102.499C126.554 103.764 127.674 106.315 128.439 109.499M122.524 42.6474L130 48.999M130 48.999L222.5 50.999M130 48.999L135 55.999C135 61.499 138 66.499 142 70.999C148.488 79.1855 152.179 83.7458 155 93.999C155.64 98.0216 155.111 100.333 153.5 104.499M222.5 50.999L230.5 38.499M222.5 50.999C209.372 71.4232 206.209 82.7659 200.5 102.999M230.5 38.499C188.149 16.4874 163.488 7.40208 113.5 12.499C109.384 13.0662 108 12.999 109.384 16.999M230.5 38.499L234.424 34.5757M153.5 104.499C158.225 105.255 160.45 107.512 160.876 109.999M129.371 116.499L151.5 118.499C154.824 118.674 157.596 117.258 159.262 115.257M129.371 116.499C129.299 114.013 128.947 111.616 128.439 109.499M128.439 109.499C140.716 110.645 147.52 111.654 159.262 115.257M159.262 115.257C160.081 114.273 160.632 113.147 160.849 112M160.876 109.999C166.849 105.375 175.5 102.999 181 102.999H200.5M160.876 109.999C160.989 110.658 160.975 111.333 160.849 112M200.5 102.999C203.881 100.7 206.648 95.8348 211.5 87.5M200.5 102.999C200.125 104.999 200.344 106.687 200.961 108M303 54.999C295.386 50.3282 285.4 44.9032 274.5 39.3374M191 1.99902C200.753 4.62567 241.754 22.6166 274.5 39.3374M274.5 39.3374L257.5 39.5L255.5 40.8846M260.5 61.5L255.5 59C252.5 57.5 251 56.5 251 55V44C250.963 41.8749 251.883 41.151 255.5 40.8846M260.5 61.5L267 56M260.5 61.5C256.003 66.3731 254.893 69.534 254 75.5M267 56C263.684 49.7523 260.706 46.5777 255.5 40.8846M267 56C271.5 64 273.618 66.0242 283 70.5M283 70.5C289 73.3625 293.5 79.5 298.5 81C301.5 82 301 83.5 299.5 85.5L283.5 109.5C281.5 112.5 280.557 114.368 280.5 118.5M283 70.5L271 86C269.5 88 266.724 87.5 266.5 85.5C265.896 80.1161 262.46 78.6048 260 80C257.116 81.6362 255.895 80.0667 254 75.5M254 75.5L235.5 65.5M235.5 65.5L245 40.5C247.5 34.5 239.5 30 236 33L234.424 34.5757M235.5 65.5L221 95.0543M234.424 34.5757C234.049 45.5021 233.138 51.7106 225.5 63.5M225.5 63.5C225.5 63.5 225.166 62.543 222 63.5C218.834 64.457 208.479 78.6232 211.5 87.5M225.5 63.5C221.507 73.553 218.393 78.7953 211.5 87.5M212 108H238.5M212 108C212 108 216.596 98.8078 221 95.0543M212 108C208.25 112.5 202.813 111.938 200.961 108M238.5 108C238.5 108 229 93 224 93.5C223.051 93.5949 222.031 94.1755 221 95.0543M238.5 108L258 117M258 117C253.254 120.679 249.5 123 244 123H163.5M258 117C262.728 118.502 265.022 121.003 269 126M163.5 123C162.408 119.165 162.288 116.965 167.5 112.5M163.5 123L168.5 129.5M167.5 112.5L160.849 112M167.5 112.5C179.468 108.361 186.968 107.754 200.961 108M168.5 129.5H182C182.854 129.5 185.255 129.955 188 130.866M213.5 153C210.586 144.867 207 139 202.5 137H198C195.994 134.134 191.687 132.089 188 130.866M213.5 153C214.5 164.5 215.557 171.626 209 181C206.337 188.016 203.926 191.382 197.815 196.336M213.5 153C231.56 153.006 245.056 152.036 259 147.241M278 138.5L276.5 136.5M278 138.5L285.843 147.754M278 138.5C271.3 142.307 265.107 145.141 259 147.241M276.5 136.5C242.318 132.54 223.005 131.012 188 130.866M276.5 136.5L269 126M303 168L285.843 147.754M285.843 147.754L259 147.241M269 126C273.476 120.494 275.987 117.649 280.5 118.5M280.5 118.5L302 146" stroke="black" stroke-width="2" stroke-linecap="round" stroke-linejoin="round"/>
</svg>
