<svg width="326" height="236" viewBox="0 0 326 236" fill="none" xmlns="http://www.w3.org/2000/svg">
<path d="M325 197C290.748 212.486 271.353 220.928 234 232.5C223.5 236 213 236 211 224C210.5 221 211.565 195.576 215 177.5C216.14 171.5 218.74 169.03 222.5 165.5C255.185 134.815 280 117.5 313 103M315 100.5C286.512 101.434 273.566 106.836 253.5 117.5C249.837 119.447 234.399 132.718 220 148.217M205 166C208.306 161.563 212.066 157.035 216 152.615M205 166C200.39 172.186 200.309 193.689 200 214M205 166C204.019 149.315 203.037 140.336 196.855 131.5M220 148.217C220 144.5 219.5 143.5 223.5 143.5L220.962 129M220 148.217C218.654 149.666 217.317 151.134 216 152.615M216 152.615V147.5C216 144.5 215.5 143.5 212.5 144C212.5 144 210.5 144.5 209.5 144C208.609 143.555 206.926 131.609 206.568 129M206.568 129C206.524 128.68 206.5 128.5 206.5 128.5C206.321 127.606 206.206 126.841 206.201 126.225M206.568 129H220.962M220.962 129L220 123.5L213.75 124M192.5 126C194.157 127.808 194.694 128.5 196.5 131C196.62 131.167 196.739 131.333 196.855 131.5M192.5 126C185.342 118.191 181.326 114.799 174 110M192.5 126L232 109.5C235.5 108 237 105.5 237 102.5V94M174 110L155 100M174 110C188.5 104.5 214.5 104.5 236.373 90.5M155 100C151.37 98.2072 149.803 97.5972 147 96.5L106 86C82.9453 80.5209 69.9948 77.8341 46.5 79C41.8722 79.2296 33 81 28.5 85L3 108M155 100C124.871 83.8853 94.5 67 83 47.5M155 100C169.204 91.9918 180.003 85.5908 189.5 81.6909M101 226C59 212 36 201.5 1 175M2 106L36.5 74C42 69 36.7984 60.6421 31.5 52C21.2915 38.0045 14.6236 30.9557 2 19M324 88C281.089 100.832 257.032 108.009 213.75 124M213.75 124L207.5 124.5C206.536 124.5 206.191 125.119 206.201 126.225M206.201 126.225L196.855 131.5M325 81C314.8 79.859 307.567 75.5343 302.356 69M287 1C287.736 10.3229 288.377 19.6606 289.422 28.5M292 72L275.5 79C273.5 80 273 80 272 79L271 78C264.5 72 256.5 78 258.5 83L259 84.5C259 84.5 257 85.5 256 86C255 86.5 237 94 237 94M292 72C295.132 68.5164 296.673 66.5158 298.259 62.6878M292 72C296.039 70.4683 298.307 69.77 302.356 69M298.259 62.6878C299.466 64.9664 300.823 67.0787 302.356 69M298.259 62.6878C295.535 57.5442 293.579 51.5533 292.115 45M237 94C236.975 92.83 236.76 91.6547 236.373 90.5M236.373 90.5C236.211 90.0149 236.018 89.5334 235.796 89.0575M83 47.5C97.5 57 113.5 61.2692 141 65.5C160.5 68.5 172.194 73.4004 189.5 81.6909M83 47.5C81 44 80.5 42 83 39.5L90 32L88.5 30.5M189.5 81.6909C194.782 79.522 199.661 78.1267 204.5 77.6586M189.5 81.6909C184.685 75.8797 177.909 72.5368 162 66.5C149 61.567 129.711 54.991 115 44C102.284 34.5 112 23 126.5 29.5L167 49.5C183.927 58.4821 192.929 63.9484 204.5 77.6586M88.5 30.5C85.5 31.5 83.7316 31.8277 81.5 29.5C74.2737 21.9626 71.9162 15.8811 70.5 2M88.5 30.5L94.5 25.5M89 1L94.5 13C97 18 96 24.5 94.5 25.5M94.5 25.5L100.5 20.25M104 1C108.669 5.93738 109 13 106.5 15L100.5 20.25M235.796 89.0575C257.5 74.5 275 63 292.115 45M235.796 89.0575C233.282 83.665 227.041 78.9834 219 77.7923M292.115 45C290.954 39.806 290.103 34.2587 289.422 28.5M289.422 28.5H271M271 28.5C249.242 46.6821 237.925 57.5353 219 77.7923M271 28.5C257.5 28.5 232.5 46.5 217.5 70.5C214.885 74.6838 210.5 75.5 209 70.5L207.5 65.5C199.782 42.7943 181.5 35.6667 166 30.5C137.5 21 122.5 16.5 100.5 20.25M219 77.7923C217.71 77.6013 216.374 77.5 215 77.5C214.6 77.5 210.5 77.5 207 77.5C206.167 77.5248 205.334 77.5779 204.5 77.6586M193 214C192.5 220.5 190 222 184 221.5C142.5 217 87 188.5 49.5 157.5C40 149 35 137.5 35 132V127.5C35 111.5 50 97.5 63.5 97.5H66.5C78 97 136.5 122 177 150.5C188.021 159.531 195 167 195 176L193 214Z" stroke="black" stroke-width="2" stroke-linecap="round" stroke-linejoin="round"/>
</svg>
