<svg width="273" height="231" viewBox="0 0 273 231" fill="none" xmlns="http://www.w3.org/2000/svg">
<path d="M13.8149 229.5C-11.6849 148 0.815144 62 51.8149 1M120.815 1C49.3151 34 37.8151 98 130.315 73.5C152.016 69.9731 170.109 67.1266 186.815 64.9444M271.815 59.5C240.078 59.411 215.489 61.199 186.815 64.9444M186.815 64.9444C183.996 67.8148 181.359 70.6615 178.899 73.5M163.315 225.5C160.24 213.02 157.684 201.58 155.711 191M178.899 73.5C152.279 79.8725 134.572 82.2237 104.315 87C85.4648 87.7466 79.9773 91.0705 72.8151 98.5C65.8225 108.305 63.562 113.936 59.8151 124C55.5032 139.954 56.931 146.12 65.8151 152.5L155.711 191M178.899 73.5C150.671 106.072 145.744 137.549 155.711 191M58.8151 225C52.2613 209.828 49.1642 200.56 46.3151 180.5C45.433 161.279 47.4183 153.251 71.3151 161.5L145.815 191C146.745 206.446 147.73 214.761 152.315 227.5M105.008 106C104.914 105.283 105.033 104.313 105.315 103C106.45 99.6318 107.524 97.599 109.999 94.5M105.008 106C105.216 107.588 106.47 107.931 109.315 108L130.315 109C130.942 101.527 131.69 97.8346 134.815 93.5C125.317 92.1476 120.086 92.4079 110.815 93.5C110.527 93.8466 110.256 94.179 109.999 94.5M105.008 106L79.3151 104.5C81.3151 98 87.8151 94.5 94.8151 94.5H109.999M101.315 113.5C94.4507 110.773 87.7022 110.409 76.3151 109.5C71.4992 114.119 70.2446 117.434 69.3151 124L92.8151 130.5C95.9785 131.187 96.7272 130.502 97.3151 128.5M101.315 113.5L97.3151 128.5M101.315 113.5C102.983 111.297 104.201 110.459 107.815 111L122.815 112.5C128.815 113.5 130.315 115 130.315 120.5L129.315 134.5C129.315 138.5 126.315 141 122.815 140.5L103.315 135.5C98.2299 134.137 97.2831 132.422 97.3151 128.5M97.8151 139.25C99.1189 138.459 100.267 138.473 102.315 138.5L124.315 144.5C127.747 145.614 128.658 146.987 128.815 150.5V161.5C128.701 163.56 128.563 164.659 124.315 163.5L98.8151 154.5C97.4591 154.032 96.9666 153.605 97.3151 152.1M97.8151 139.25L96.3151 139.5V150.5L97.3151 152.1M97.8151 139.25L71.3151 131C68.8664 130.296 67.8928 130.377 67.8151 132.5C67.8151 146 82.759 149.267 97.3151 152.1" stroke="black" stroke-width="2" stroke-linecap="round" stroke-linejoin="round"/>
</svg>
