<svg width="347" height="212" viewBox="0 0 347 212" fill="none" xmlns="http://www.w3.org/2000/svg">
<path d="M345 177.5C286.898 178.02 239.895 177.942 195 176.903M2 166.5C55.8765 170.67 100.325 173.477 143.5 175.252M143.5 175.252L141 211M143.5 175.252C160.697 175.959 177.692 176.503 195 176.903M195 176.903V211M2 146C132.218 154.822 207.293 157.204 346 155.5M1 111.5H39.5M39.5 111.5L40.5 129C41.5 137.5 45 140.5 54 140.5L294 145.5C301.5 145.5 307.5 140.5 307.5 134V113M39.5 111.5L34 13C34 7 37.5 4.5 43.5 4.5L300.5 1C307 1 311 3.5 311 10.5L307.5 113M340 113H307.5M291 125C291 133 286.5 137 280.5 137L68.5 132.5C61 132 57 128 56.5 122L50.5 20.5C50.5 15.5 54.5 13 60 13L285 10C290 10 294 12 294 18L291 125Z" stroke="black" stroke-width="2" stroke-linecap="round" stroke-linejoin="round"/>
</svg>
