<svg width="318" height="231" viewBox="0 0 318 231" fill="none" xmlns="http://www.w3.org/2000/svg">
<path d="M1 217C14 231 34 230 58 214M58 214C48.4336 206.98 46.0252 202.771 44.5 195C35.5 147.5 27.5 88.5005 2 58.0005M58 214C80.5 228 104.5 229.5 136 229.5H185C204 229.5 214.5 228 230 224C235 219.5 237.557 219.406 244 218C259.5 215 293.5 199.5 316 175M2 207C4.5 210 16.5 210.5 17.5 182V143C17.5 129 13.5 109.001 1 90.0005M316 161C303.755 171.321 296.729 176.959 281 184C275.416 186.5 273 185.5 272.5 180C271.68 139.315 266 108.001 252.5 78.0005V70.0005C252.5 66.1964 253.125 63.1962 254.225 61M2 6.50051C75.5 -11.4999 270.5 25 317 69.0005C298.888 57.5243 288.365 56.6429 269.5 56.5005H261C258.113 56.5005 255.727 58.0003 254.225 61M254.225 61C251.447 60.1044 248.707 59.2311 246 58.3798M65 33C66.3673 30.5275 67.5708 29.6335 71 29.5C137.191 30.4593 182.217 38.3204 246 58.3798M65 33C43.9308 24.9547 29.6484 23.3374 2 23M65 33C61 47 74.5 66 83 75C87.25 79.5 85.5 80.5 100 81C114.5 81.5 122 87 137.5 86.5C150.034 86.2074 162 83 169 82.5C176 82 223.5 86.5 228 85C232.5 83.5 246 58.3798 246 58.3798M245 169C248 164.5 246.5 161.5 240 161.5L113 160C109 160 101 162.5 98 168L82 201C81.5 202.5 82 204 84 204.5C130.532 211.241 156.093 211.121 204 206.5C212 205.5 217.5 203.5 224 196.5C232.829 185.856 237.445 179.808 245 169Z" stroke="black" stroke-width="2" stroke-linecap="round" stroke-linejoin="round"/>
</svg>
