<svg width="415" height="178" viewBox="0 0 415 178" fill="none" xmlns="http://www.w3.org/2000/svg">
<path d="M333 154L414 149V46M179.5 128C135.585 114.776 84.4054 99.3151 57.4995 93.8559M57.4995 93.8559C52.9309 92.9289 49.0477 92.2903 45.9995 92C44.674 73.6085 37 49.5 28 48.5H25.9999C23 48.5 16.5 51 16.5 61.5L17.2002 79.3071M57.4995 93.8559C56.1668 104.112 52.4995 112 44.9995 112H27.9995M27.9995 112H24.9995C18.5982 109.866 16.1809 95.2103 16.9887 82M27.9995 112C39.4995 104 37.9999 60 26.9999 60H25.9999C21.2705 60 18.2048 68.873 17.2002 79.3071M17.2002 79.3071C17.1147 80.1949 17.0441 81.0941 16.9887 82M16.9887 82C13.6582 75.8845 11.5 72 11.5 64V49.5C11.5 41 13.8459 37.0781 16 29.5M1 1V116.5L181 177M267 156.5H265.5M265.5 156.5H239.5M265.5 156.5C259.827 165.328 255.019 168.115 246 172.5H219M239.5 156.5C237.261 164.745 232.303 168.088 219 172.5M239.5 156.5C233.816 151.242 231.305 147.487 230 137C227.478 111.41 220.042 86.4753 210.52 77.5M219 172.5H211C195.5 171 179.5 149.5 179.5 132V120C179.761 108.154 182.012 103.158 187 95M187 95C188.471 84.0223 193 75.5 202 74H203C205.608 74 208.13 75.2473 210.52 77.5M187 95C193.611 85.601 198.538 81.5555 210.52 77.5" stroke="black" stroke-width="2" stroke-linecap="round" stroke-linejoin="round"/>
</svg>
