<svg width="424" height="225" viewBox="0 0 424 225" fill="none" xmlns="http://www.w3.org/2000/svg">
<path d="M423 59.0001V224H1V60.0001M351 193.5V206.5C351 209 349 210.5 346 210.5H316.5C312 210.5 312 208.5 312 205V196.5M351 193.5C324.205 196.867 317.176 197.237 312 196.5M351 193.5C359 192 360.5 190 357 183L358.5 118.5C358.5 110 358.892 103.822 351 90.0001C345.586 81.4807 340.814 77.1966 332.5 69.5001M312 196.5C303.08 193.424 299.226 192.354 296 192.5C231.324 197.534 195.714 196.375 132.5 192.5C127.923 192.322 123.389 193.428 113.5 196.5M113.5 196.5V206C113.5 208.5 112 210 109 210H78.5C75 210 74.5 208.5 74.5 206V193M113.5 196.5C97.901 198.166 89.445 196.716 74.5 193M74.5 193L69 191.5C66 190 67.5 186 69 183L67 109C67.5 101 78.5 81.0001 93.5 69.5001M93.5 69.5001L102 60.5001L102.5 59.9287M93.5 69.5001V79.0001C94 88.5001 113 97.5001 124 97.5001H299C314.774 97.3711 331.5 89.0001 332.5 78.5001V69.5001M105.5 56.5001C105.528 49.5424 102.5 42.0001 97 42.0001H91C81.6819 42.4469 76.6127 42.8519 75.5 51.5001V53.0001C76.1701 58.3307 81.3508 60.042 102.5 59.9287M105.5 56.5001L102.5 59.9287M105.5 56.5001C116.769 36.7532 123.457 26.0863 138.5 10.5001M332.5 69.5001L323.704 60.0001M138.5 10.5001C141.107 7.09508 142.538 6.50981 152 4.50012C176.425 0.384754 203.899 0.341162 266.5 2.50012C275.5 3 284 5.5 288.5 10.5001C302.325 27.1171 309.343 36.9865 320 56.0001M138.5 10.5001C192.223 7.7742 222.509 6.45793 282 11.0001C296.996 29.5516 304.176 39.6129 309.5 55.5001H271M138.5 10.5001C124.921 28.9119 118.722 38.8437 111.5 55.5001H150.5M320 56.0001C322.047 48.4063 323 42.0001 328.5 42.0001H336.5C342.5 42.0001 349 43.5001 350 51.0001V53.0001C349.5 58.0001 339.035 59.5972 323.704 60.0001M320 56.0001L323.704 60.0001M240.5 55.5001C241.424 40.3055 244.5 31.5 253.5 31.5H255.5C263.5 32 267.848 42.2922 271 55.5001M240.5 55.5001H271M240.5 55.5001H190.5M150.5 55.5001H190.5M150.5 55.5001C152.649 51.8586 155.094 48.8601 158 46.7099M190.5 55.5001C189.471 53.7181 188.291 52.0911 187 50.6426M158 46.7099C161.546 44.086 165.779 42.7252 171 43C176.461 42.6099 182.422 45.5036 187 50.6426M158 46.7099C159.37 35.8069 165.5 32.5 171 32.5C181 32.5 185.78 40.7545 187 50.6426M210 16.5H203C196 16.5 196 24.5 203 24.5H223.5C229 24.5 229 16.5 223.5 16.5H215M210 16.5C210 16.5 209.5 12.5 212.5 12.5C215.5 12.5 215 16.5 215 16.5M210 16.5H215M349.5 94.0001C347.5 89.5001 345 91.0001 341.5 92.5001L301.5 112.5C297 115 296 117.5 299 121L302.5 125C304 126.5 304.92 126.316 306.5 126L344.5 120C351.5 118 352.5 102 349.5 94.0001ZM127 121C129.5 118.5 129 115.5 126 114L82 92.0001C79 90.5001 77.9156 90.5702 77 93.0001C73.9266 102.393 74.3252 107.773 77.5 117.5C78 118.5 79 119.5 82 120L119.5 126C121 126 122 125.5 123.5 124.5L127 121ZM134.5 168.5C132.5 168.5 131 168.5 130 170L124 178C122.5 180 121.5 183 124 183.5C193.097 187.481 231.532 186.398 300 183.5C303.5 183 303.5 180.5 301.5 178L296 170C294.5 168.5 293.708 168.665 292 168.5H134.5ZM292 139L287.5 119C286.5 115.5 283.843 113.03 279.5 112.5C238.5 107.5 179 108 146.5 112.5C142.344 113.076 139.5 114.5 138.5 119L134 140C133.5 142.5 134.139 144.192 137.5 145.5C169 159 256 159 288.5 145.5C292 143.5 292.5 141.5 292 139Z" stroke="black" stroke-width="2" stroke-linecap="round" stroke-linejoin="round"/>
</svg>
