<svg width="419" height="105" viewBox="0 0 419 105" fill="none" xmlns="http://www.w3.org/2000/svg">
<path d="M418 1V104H1V2M10 45L7.5 51L8 68C9 70.5 8.44826 71.6293 7.5 73.5C5 74 5 76.5 7 77C18.3103 79.9184 25.361 80.5839 38.5 81V63.5C39.5 47.5 52 32.5 66 32H78C96 33.5 106 46 108 57.5C109.771 66.6789 110.011 71.8256 110 81H298.5C297.5 46.5 322.5 19.5 356 43C365 50.5 367.742 61.2326 366.5 77.5L384.5 73.5M43 69C43.5 41 71.5 40 74 40C76.5 40 105.5 41 105.5 69C105.5 97 77.5 100 74 100C70.5 100 42.5 97 43 69ZM304.5 69.5C304.5 53 316 40 333 40C350 40 361.5 53 361.5 69.5C361.5 86 349 99.5 333 100C317 100.5 304.5 86 304.5 69.5Z" stroke="black" stroke-width="2" stroke-linecap="round" stroke-linejoin="round"/>
</svg>
