<svg width="297" height="232" viewBox="0 0 297 232" fill="none" xmlns="http://www.w3.org/2000/svg">
<path d="M1.5 168L14.9317 133.754M105.5 123.5C78.84 97.1304 74 57.5 67 1L14.9317 133.754M105.5 123.5C100.605 147.764 105.375 160.281 125 181M105.5 123.5C113 100 148 69.5 196 68.5H200C225 68.5 253.639 78.7443 274.5 106.5M14.9317 133.754L26.5 151.5C32.5 161 37.7264 168.235 46.5 176C57.3382 185.157 63.3616 190.393 75 198M75 198L42 211M75 198L125 181M42 211C49.3927 215.252 52.9006 218.481 66.5 214.5M42 211L18.6432 195.135M15.5 193L18.6432 195.135M125 181C135.289 190.103 141.229 194.715 152.5 201M152.5 201C129.101 201.94 107.122 206.235 66.5 214.5M152.5 201C172.853 216.493 183.5 226.5 218.5 228.5H225.5C270.5 226 293 198.5 296 165V162C296 139 286.5 120 274.5 106.5M152.5 201C133.858 181.224 127.5 157.5 127.5 143.5V141.5C130 102 155.5 76.5 201 74.5H204C230 76 251.07 83.8809 274.5 106.5M66.5 214.5C64.8239 222.175 59 230.5 49 230.5H45C27.5 230 10.5 214.5 18.6432 195.135M53.5 73.5C56.3183 72.5627 57 72 57.5 70.5L59.5 60.5C60 58 57.2772 57.3818 56 58.5C41.7658 70.9619 41.5773 77.5835 39 89.5C38.5 92 44 93.5 46.5 89.5C47.6423 87.5474 49 86.5 46.5 84.5C45.5 83.5 45.9462 82.0694 47 80C48.886 76.4353 50.0731 74.6397 53.5 73.5ZM18.5 153.5C19.4543 152.737 19.8942 152.253 20 151V149C20 148 18.5 148 17.5 149C12.8485 153.184 12.1184 155.938 11.5 161C11.5 162.5 14 162.5 14.5 161L15 159.5C15.0226 156.746 15.4949 155.342 18.5 153.5ZM140.5 160.5V157.5C141.5 138 157 123.5 187.5 122.5H192C234.5 124 269.5 154 271.5 183.5V186.5C271 203 253 219 226.5 220H222C178 218 142.23 188 140.5 160.5Z" stroke="black" stroke-width="2" stroke-linecap="round" stroke-linejoin="round"/>
</svg>
