<svg width="348" height="222" viewBox="0 0 348 222" fill="none" xmlns="http://www.w3.org/2000/svg">
<path d="M32.5 221L51.5 174L70.5 175.5M70.5 175.5C84.1014 179.676 100 181 112 182.5C124 184 195 193 195 193C195 193 223.5 196.5 231 196.5C238.5 196.5 271.5 196.5 271.5 196.5C277 196.5 281.5 194.5 285 189.5C287.491 185.73 287.5 184.5 293 184C322.015 167.43 327 136.5 346 88.5M70.5 175.5C67.5 173 57 168 51.5 161M51.5 161C41.5 160 36.5 154.5 32.5 146C27.4156 133.772 27.018 126.846 26 114.5M51.5 161C132.291 173.677 214 187 260 187.5C274 187 290 177.5 297 157L327.5 59M26 114.5C25.7816 111.971 25.5263 110.571 25 108C24.5 105.5 26.0743 101.887 28.5 98.5L46.5 71.5C47.1967 70.2807 47.7721 69.1153 48.2402 68M26 114.5C34.4871 111.405 41.5646 108.954 48.5738 107M16.5 28.5L13.5 37C13 38.5 11.5 39 11 38.5L1.5 30.5M16.5 28.5C17.5 24.5 19 22.5 22.5 22.5H24.5C25.5 22.5 27.7138 21.235 29 19.5C32.5475 14.7146 35.4538 11.3544 39 8.13168M16.5 28.5L26 31.35M48 1C44.3688 3.61658 41.5225 5.83933 39 8.13168M26 31.35L26.5 31.5C34 34.5 39.6476 39.22 46.5 49.5C47.642 51.4033 48.784 53.524 49.4296 56M26 31.35C27.5 27.5 29.4187 26.5628 36 27C71.4498 29.1606 100.268 30.935 128 33.1837M327.5 59L341 15M327.5 59L298.293 54.5913M341 15H347M341 15C224.938 23.0375 159.662 24.4715 43 23.5C43.036 17.3707 42.4097 13.9854 39 8.13168M49.4296 56L87 52.5018M49.4296 56C50.2829 59.273 50.2687 63.1668 48.2402 68M128 33.1837L126.212 36M128 33.1837C142.697 34.3754 157.089 35.7004 172 37.2866M126.212 36L120.5 45C118 49 113 50 108.5 50.5L87 52.5018M126.212 36H114.5C112.021 35.8056 109 36 108.5 38.5C107.228 44.2127 105.077 45.0995 100.5 45.5C90.9251 46.2739 87.8449 47.7559 87 52.5018M48.2402 68C84.4663 65.4455 104.774 63.4829 141 58C147 57 148.629 56.4095 153.5 53L172 37.2866M172 37.2866C195.07 39.7408 219.385 42.8205 248 47L298.293 54.5913M85 101L71 85C67.9069 81.385 68 79 71 75.5L74 72.5C76 70.5 80.2972 70.1131 83 73.5C84 75 84.6165 75.7628 83.5 77C82.1265 78.5221 82 79.5 83 80.5L102 98C103.884 99.7136 105.173 99.3686 107.5 99.5C172.111 103.148 212.83 103.496 254 116C255.809 116.549 257.35 118.5 256.5 119.5M85 101C69.8296 102.189 59.2814 104.015 48.5738 107M85 101L99.5 115.5C106.5 121.5 111.5 123 120.5 124.5L160 128.5C165.5 129 174.605 132.588 180.5 139.5M256.5 119.5C248 129.5 241.5 133 229.5 134.5L180.5 139.5M256.5 119.5C274.821 94.2011 283.535 79.9775 298.293 54.5913M180.5 139.5L108 144C104 144 101.5 143 98.5 140.5L65.5 111C62.7267 108.066 57.7553 107.643 48.5738 107" stroke="black" stroke-width="2" stroke-linecap="round" stroke-linejoin="round"/>
</svg>
