<svg width="348" height="228" viewBox="0 0 348 228" fill="none" xmlns="http://www.w3.org/2000/svg">
<path d="M347 98C280.387 143.706 242.695 169.285 172.5 214.5C142 232 105.5 229.5 91 213L1.5 117C101.195 62.8772 149.824 34.6703 180 1M217 114L209 64L120 119.5L128 169L217 114ZM173.5 94.5L170 136.5L163 140.5L149 108.5L155 104.5L165.5 130.5L167 98.5L173.5 94.5ZM193.5 91.5L193 85C183.405 90.612 180.387 95.442 178.5 106.5C176.609 120.125 180.5 127 187 127C192 127 197.754 120.762 199 110.5C199.64 105.229 197 99.5 193 99C190 98.5 186.736 101.993 183.5 106.5C184.888 99.0687 186.556 95.4601 193.5 91.5ZM189.5 106.5C186 106.5 184.5 112 184.5 113.5C184.5 115 184.5 120.5 188.5 120.5C192.5 120.5 193 114 193 113.5C193 113 193 106.5 189.5 106.5Z" stroke="black" stroke-width="2" stroke-linecap="round" stroke-linejoin="round"/>
</svg>
