<svg width="414" height="232" viewBox="0 0 414 232" fill="none" xmlns="http://www.w3.org/2000/svg">
<path d="M412.5 67.4999V231H1V66.9999M73 103C67.161 130.819 62.7686 147.486 69 179.943M73 103L79.5 81.4999C79.5956 81.1361 79.6957 80.805 79.8061 80.4999M73 103C76.2191 110.268 79 112.5 84 113C94.74 113.019 100.764 112.932 111.5 111.5M110 188.957C112.077 186.988 115.102 185.5 119.5 185.5C132.5 185.5 134.5 198.5 134.5 198.5C189.956 199.917 221.044 199.808 276.5 198.5C276.5 198.5 278.5 186 291 185.5C303.5 185 305.5 198.5 305.5 198.5L338.5 195.5C347.744 160.697 345.5 127 337.5 102.5M110 188.957C105.938 192.808 105.5 198.5 105.5 198.5C92.5983 197.396 85.4365 196.715 72.5 195.5C71.0801 189.909 69.9234 184.752 69 179.943M110 188.957V213C110 217.5 106.5 221 102 221H77.5C70.5 221 69 218.5 69 213V179.943M337.5 102.5C336.195 108.534 331.5 113 326.5 113L298.5 111.627M337.5 102.5L331 80.9999M302 190.5V212C302 217.5 305 221 310 221H335C339.5 221 343 217 343 211V173M339 128C326.5 142 315.5 150 295 151H116C94.5 150 85.5 141.5 73 127M331 80.9999C308.148 88.6899 295.694 89.7663 273.5 91.4999C270 92.4999 268 94.9999 267.5 98.9999C267 103 271 110 275.5 110.5L298.5 111.627M331 80.9999C327.322 76.9875 324.524 74.8497 319 71.1175M314 66.9999L309.5 58.4999M314 66.9999C314.682 68.2148 316.07 69.2071 319 71.1175M314 66.9999C308.975 84.4218 305.224 94.1949 298.5 111.627M309.5 58.4999H317.5C317.5 58.4999 324 58.4999 324 63.9999C324 69.4999 319 71.1175 319 71.1175M309.5 58.4999C299.704 26.7146 291.5 15.4999 275 14.4999C221.313 10.0438 191.665 11.0583 139 14.4999C120.129 16.1653 108.715 33.8824 101.5 57.4999M298.5 111.627L295 122C290.5 133.5 281.5 141 268 141.5H148C130.5 141 121.5 134.5 115.5 122L111.5 111.5M111.5 111.5L103.634 87.6319M111.5 111.5L135 110C140 109.5 142.5 103.5 143.5 99.4999C144.5 94.4999 140 91.9999 135.5 91.4999L103.634 87.6319M97 67.4999L103.634 87.6319M97 67.4999C99.0586 65.0378 100.007 62.7071 101.5 57.4999M97 67.4999C95.1287 69.2396 93.5393 70.6468 92 71.848M103.634 87.6319C92.568 85.8016 87.1016 84.3745 79.8061 80.4999M79.8061 80.4999C80.3635 78.959 81.1823 78.081 83 76.9999C86.7018 75.4591 89.2721 73.9769 92 71.848M291 74.9999C225.657 71.4763 188.651 71.3994 122 74.9999M101.5 57.4999C101.5 57.4999 89 57.4999 88.5 63.9999C88 70.4999 92 71.848 92 71.848M322 1H90M120 190.5C116.5 190.5 112.5 193 112.5 197.5C112.5 202 117.5 204 120 204C122.5 204 127.5 202.5 127.5 197.5C127.5 192.5 123.5 190.5 120 190.5ZM291 190.5C288 190.5 283.5 193.5 283.5 197.5C283.5 201.5 288 204 291 204C294 204 298.5 202.5 298.5 197.5C298.5 192.5 294 190.5 291 190.5ZM246.5 119.5V107.5C246.5 106 245.5 105 244 105H159C157 105 156 105.5 156 107.5V118C156 120.5 157.5 121.5 160 121.5H243.5C245.5 121.5 246.5 120.5 246.5 119.5ZM114.5 50.5C112.041 56 114.5 59 120 59C177.106 57.8806 287 58.5 290.5 59C295.082 59.2495 298 54 296.5 50.5L286.5 32.5C282.5 25.5 277.5 24 268.5 23C218.976 19.834 191.382 19.7767 142.5 23C129.5 24.5 123.712 29.8991 114.5 50.5Z" stroke="black" stroke-width="2" stroke-linecap="round" stroke-linejoin="round"/>
</svg>
