<svg width="419" height="176" viewBox="0 0 419 176" fill="none" xmlns="http://www.w3.org/2000/svg">
<path d="M319 146L418 136V34M181 174.5L1 119V1M19 56C13.9185 59.0132 13.4552 62.1866 14.5 69M14.5 69C15.7843 64.983 17.5 59 19.5 59C21.5 59 22.2601 62.2368 23 66M14.5 69C17.5011 65.9558 19.29 64.8894 23 66M14.5 69C8 76 9.5 95 21 96H28M23 66C25.3944 81.3302 31 88 35 90M28 96C31.3063 94.3542 33.0632 93.3135 35 90M28 96H34C37 96 37.9268 93.8634 39.5 91.5M35 90C36.6502 90.8147 37.6108 91.1948 39.5 91.5M39.5 91.5C46 91.5 99.4616 112.08 137.5 126M137.5 126C136.688 119.162 136.749 116.299 138.5 110C139.967 107.198 141.539 104.806 143.192 102.788M137.5 126C140 145 154.5 162 164 162.5H173M173 162.5H175H183C226 149 175 68 143.192 102.788M173 162.5C213 146 180 85 143.192 102.788" stroke="black" stroke-width="2" stroke-linecap="round" stroke-linejoin="round"/>
</svg>
