<svg width="396" height="201" viewBox="0 0 396 201" fill="none" xmlns="http://www.w3.org/2000/svg">
<path d="M395 53.0002C364.345 35.0212 331.951 21.7266 298.5 13.0905M1 53.0002C32.6559 36.3264 65.1 23.6526 97.7752 15M97.7752 15C165.339 -2.89136 233.889 -3.59026 298.5 13.0905M97.7752 15C99.8055 20.4403 103.689 24.6725 109 27.8141M298.5 13.0905C294.533 18.2602 290.4 22.2126 286 25.2331M109 27.8141C117.356 32.7571 129.243 35 143 35H216C247.463 34.6017 268.775 37.0586 286 25.2331M109 27.8141C109.169 28.002 109.335 28.1889 109.5 28.3746M286 25.2331C284 28.5956 281.05 31.7014 278 34M286 25.2331C323.357 33.5575 342.222 42.0376 373.5 61.5C382 67.5 387 74.5 385.5 90.5C382.775 116.065 376.5 133 366.5 145C351 161.5 328.5 165 306 164.5C306 164.5 288.5 164 284.5 164C280.5 164 270 162 262 159.5C259 158 163 157.5 153.5 159.5C144 162 93 171 60 165.5C43.3301 163.014 32 154 28 147C14.6767 121.025 9.6455 107.274 9 85.5C8.86217 80.8508 10.2182 79.2686 13 76C33 52.5 80 36 109.5 28.3746M116.741 36C120.851 39.4383 126.088 41.6996 136 42H242C259.499 42 270.376 39.7452 278 34M116.741 36C86.5 47 61.5068 55.6661 40.5 75C33 81.9027 35 92.2308 40 103C46.5 117 49.9122 124.652 59 137M116.741 36C114.176 33.8534 112.05 31.248 109.5 28.3746M59 137C66.5 148 80 152.5 92 152H125C137.5 152 157.5 147 172 147H240.5C257.232 146.931 265 149.071 282 151.5C292.5 153 329 151 339 133M59 137L162 135.529M339 133L357.5 96.5C363.5 84 360 73.5 346.5 64C324.644 49.0923 308.309 43.3745 278 34M339 133L233.5 134.507M170.705 101.827C170.568 100.701 170.5 99.5871 170.5 98.5C170.5 86 181 70.5 198.5 70.5C216 70.5 226.5 86 226.5 98.5C226.5 111 217.5 126 198.5 126.5C182.528 126.92 173.623 115.681 171.19 104.663M170.705 101.827L147 106L171.19 104.663M170.705 101.827C170.819 102.766 170.98 103.714 171.19 104.663M162 135.529L233.5 134.507M162 135.529C162 135.529 157.25 131.396 152.5 124.452M233.5 134.507C233.5 134.507 238.451 129.829 243.304 122.639M156 122L152.5 124.452M152.5 124.452C151.579 123.105 150.658 121.653 149.772 120.105M153 118L149.772 120.105M149.772 120.105C146.638 114.63 143.936 107.953 143.199 100.5M151 100.5C150.6 100.5 145.632 100.5 143.199 100.5M143.199 100.5C143.069 99.1899 143 97.8558 143 96.5C143 88.7078 144.835 80.2694 148.904 72.5M156 77L148.904 72.5M148.904 72.5C153.092 64.5037 159.645 57.2161 169 52.0709M174 59L169 52.0709M169 52.0709C176.692 47.84 186.278 45.0578 198 44.5215M198 52V44.5215M198 44.5215C198.166 44.5139 198.333 44.5067 198.5 44.5C209.9 44.0429 219.255 46.6999 226.786 51.1634M222 58L226.786 51.1634M226.786 51.1634C235.405 56.2712 241.634 63.7447 245.806 71.6245M240 76L245.806 71.6245M245.806 71.6245C250.844 81.1408 252.882 91.2497 252.5 98.5C252.024 107.535 247.705 116.12 243.304 122.639M246 99H252.5M240 120L243.304 122.639M1 189C47 201.5 76.5 206 125 182.5C138.5 176.5 150 174.5 168.5 174.5H246C263.5 174.5 277.429 177.61 294.5 188C323.5 204.5 367 191 394 185M279.5 78.5C292.5 78 297.5 89 297.5 97C297.5 105 292.5 115 279.5 115C266.5 115 262 103 262 97C262 91 266.5 79 279.5 78.5ZM319.5 114.5C308 114.5 301.5 104 301.5 96.5C301.5 89 309 78.5 319.5 78.5C330 78.5 337.5 88 337.5 96.5C337.5 105 331 114.5 319.5 114.5Z" stroke="black" stroke-width="2" stroke-linecap="round" stroke-linejoin="round"/>
</svg>
