<svg width="352" height="223" viewBox="0 0 352 223" fill="none" xmlns="http://www.w3.org/2000/svg">
<path d="M125.5 123.176C127.294 123.334 128.618 124.605 132 123.176C189.078 97.1278 223.503 86.5158 287 68.6763L201 14.6764C171.067 -4.25254 152.531 -5.55524 109 23.6764C67.9762 56.6518 45.9826 75.9794 7.5 111.079M125.5 123.176C124.528 110.511 120.291 106.688 109 103.176L83 98.6763C76.487 98.0119 71.5081 97.8568 67.5 99.2622M125.5 123.176C126.238 132.748 126.683 140.095 126.673 147.676M56 113.676L7.5 111.079M56 113.676L52.5 121.676M56 113.676C59.0571 105.142 62.5332 101.004 67.5 99.2622M7.5 111.079L1 116.676L52.5 121.676M52.5 121.676L42.5 154.176M42.5 154.176H2.5M42.5 154.176C40.1672 161.751 39.339 166.02 38.5 173.676C38.1134 179.614 39.4147 182.142 45.5 184.676M45.5 184.676C50.6374 179.194 52.1202 175.765 54 169.176C60.8589 141.836 65.6921 126.484 67.5 99.2622M45.5 184.676C43.6448 186.514 42.2819 187.303 38.5 187.676C21.9769 189.22 14.9064 193.403 2.5 201.176M45.5 184.676C66.0603 183.966 79.7398 183.341 96.821 181.87M126.673 147.676C126.664 154.288 126.309 161.078 125.5 169.676C125.213 172.725 124.267 175.404 122 177.322M126.673 147.676L165 136.486M276.098 199.5C273.693 192.728 271.439 184.855 269.359 179.176M165 136.486C164.101 154.14 164.472 164.032 166 181.676M165 136.486L184.725 130.727M166 181.676C146.723 182.661 136.825 182.045 122 177.322M166 181.676C167.791 198.631 170.549 207.503 180 221.676M122 177.322C120.318 178.746 117.908 179.75 114.5 180.176C110.828 180.557 107.376 180.901 104.08 181.213M161 221.676C145.021 204.512 126.894 183.141 108.112 184.62M19 221.676C26.0035 207.096 34 195.676 49 192.676L100.5 185.634M100.5 185.634L107.5 184.676C107.704 184.655 107.908 184.636 108.112 184.62M100.5 185.634L96.821 181.87M96.821 181.87C99.1677 181.667 101.579 181.449 104.08 181.213M108.112 184.62L104.08 181.213M184.725 130.727L226 118.676C236.25 115.891 242 116.676 247 126.176C257.135 147.338 262.868 161.449 269.359 179.176M184.725 130.727C182.641 134.372 182.5 136.676 184 140.676L202 180.676M202 180.676C201.083 183.128 200.477 184.437 200.5 186.676C200.644 200.478 201.042 208.182 204 221.676M202 180.676L217.5 176.676V174.176M217.5 174.176C213.575 173.456 210.5 171.676 211.5 168.176C215.015 153.415 218.084 145.746 224.5 131.176C225.5 128.906 227 127.176 229.5 127.176H232M217.5 174.176L221 174.439M252.5 179.176H269.359M252.5 179.176C247.096 176.933 243.121 176.196 237.5 176M252.5 179.176C271.985 194.362 281.246 204.367 298 222M221 174.439C227.525 171.269 231.5 169.176 232 162.176C232.5 155.176 231.594 140.892 232 127.176M221 174.439L229 176M232 127.176H240C244 127.176 246.5 131.176 248 135.176C251.2 146.112 252.468 152.24 253 163.176C253 168.176 249.5 171.676 244 172.176H237.5V176M229 176L229.5 173.5H234.5V176M229 176H234.5M229 176C223.5 177.5 220.5 180 220 185V190C221.362 203.208 229.067 209.742 238 222M234.5 176H237.5M331 222L271 122.5C269.5 119.5 268.5 111.5 275 108.5C278.938 106.993 282.559 105.751 286 104.722M328 99.5C310.932 99.911 299.952 100.553 286 104.722M351 176H318L281 122.5C276 114.5 278.641 110.185 286 104.722M157.5 170.676C157.633 173.963 157.424 175.625 152.5 175.676H142.5C135 175.676 130 173.676 128 168.676V166.176C128 164.676 128.897 164.025 130 162.676C135.635 156.521 138.894 153.188 145.5 148.176C150 144.676 154 145.676 155 149.676L157.5 170.676ZM191.5 180.676C195 180.676 195 177.176 193.5 173.676L186 158.676C184.821 156.772 184 155.176 181.5 155.176H178C175.5 155.176 174 156.676 174 159.176V177.176C174 179.176 175 180.676 178 180.676H191.5Z" stroke="black" stroke-width="2" stroke-linecap="round" stroke-linejoin="round"/>
</svg>
