<svg width="373" height="242" viewBox="0 0 373 242" fill="none" xmlns="http://www.w3.org/2000/svg">
<path d="M140.5 240.002L151 188.001M151 188.001C149.18 177.225 140 168.001 130.5 166.001C96.3954 158.216 76 156.001 37 162.501M151 188.001C157.199 163.809 157 145 153.5 127.5M37 162.501C27 164.501 20.5 165.001 12.5 174.001L1 187.501M37 162.501C44.4849 153.891 47.7989 148.661 53 139.001C57.6167 129.857 58 121.001 51 117.001M51 117.001C39.0748 111.451 29 103.001 24 94.0012M51 117.001C25.5514 120.5 15.1206 126.254 2 142.001M51 117.001C87.5 115.5 137.959 113.958 153.5 127.5M24 94.0012C16.5 99.5012 14 117.001 1 136.001M24 94.0012C44.0877 82.3733 71.5 82.5 119.5 87C143.5 88.5 150 100 153.5 127.5M24 94.0012C16.7767 81.475 16.9041 70.7152 18.8091 54.5M20 45.0012L1 56.0012M20 45.0012C31.5144 38.1338 37.2009 35.0917 47.5 29.5012M20 45.0012C19.5663 48.3798 19.1579 51.5313 18.8091 54.5M47.5 29.5012C42.8971 28.7842 40.7507 27.8773 37.5 25.5012M47.5 29.5012C60 23.4997 169 17.5 247 29.5012M33 56.3994C30.0019 58.1073 27.5 60.2539 27.5 62V71.5C27.7649 74.1495 30.4166 75.395 33 75.1622M33 56.3994C34.2946 55.6619 35.6818 55.0063 37 54.5C38 54.1159 38.5 54.5 38.5 56L38 71C37.5299 73.5855 35.2918 74.9556 33 75.1622M33 56.3994V75.1622M18.8091 54.5C28.776 44.9472 39.5 41 54 38.5C92.4741 32.7897 110.741 34.0297 143.5 36M143.5 36H161M143.5 36L148.5 65C149.5 69 151.5 72 155.5 72H162.521M161 36H218M161 36L162.394 69M188.5 142.5H165.5L164.782 125.5M188.5 142.5C189.051 139.71 189.684 138.772 191.5 138.5M188.5 142.5V147.5M191.5 138.5C192.018 132.235 191.312 129.424 188.5 125.5M191.5 138.5C194.284 139.66 196.067 139.811 199.5 139.5M188.5 125.5H164.782M188.5 125.5L188 122.5C187.658 119.995 188.302 117.827 189.5 116.138M164.782 125.5L164.296 114M162.521 72L162.711 76.5M162.521 72L162.394 69M162.711 76.5H156.5C154.5 76.5 154.5 78 154.5 79.5L154.86 82.5M162.711 76.5L162.965 82.5M163.894 104.5C162.5 107.5 158 107.5 157.5 104.5L157.14 101.5M163.894 104.5L163.768 101.5M163.894 104.5L164.085 109M157.14 101.5H163.768M157.14 101.5L156.6 97M163.768 101.5L163.683 99.5M156.6 97H163.577M156.6 97L156 91.9999M163.577 97L163.366 91.9999M163.577 97L163.683 99.5M156 91.9999H163.366M156 91.9999L155.4 87M163.366 91.9999L163.155 87M155.4 87H163.155M155.4 87L154.86 82.5M163.155 87L162.965 82.5M154.86 82.5H162.965M188.5 154V147.5M188.5 147.5C184.067 146.077 179.5 146 180 149C182.5 162 192.524 166.558 209.5 165.5C210.5 165.438 211.5 165 211.5 164C211.679 151.333 209.881 148.541 204.5 148.5M204.5 148.5C205.054 151.216 205.607 152.569 208 154M204.5 148.5L201.722 143.5M199.5 139.5L203.5 125.5M199.5 139.5L201.722 143.5M203.5 125.5H212M203.5 125.5L204 121C204 117.679 203.015 115.399 201.533 114M212 125.5L210.5 143.5H201.722M212 125.5L213 114M213 114V109M213 114H201.533M213 109H196M213 109L213.399 105.205M187.5 109C187.065 109.072 186.854 109.444 186.5 110.5L185.5 114M187.5 109H190M187.5 109H180.5M185.5 114L189.5 116.138M185.5 114H164.296M201.533 114C199.271 111.864 195.848 111.781 193 113.18M193 113.18L190 109M193 113.18C191.639 113.849 190.41 114.855 189.5 116.138M190 109H196M164.296 114L164.085 109M164.085 109H180.5M180.5 109V99.5M180.5 99.5H163.683M180.5 99.5H196M196 109V99.5M196 99.5H214M214 99.5L214.196 96.5M214 99.5L213.789 101.5M213.399 105.205C214.5 106.5 218 108 219 105.205L220.163 96.5M213.399 105.205L213.789 101.5M215.5 76.5H220.5C222 76.5 222.725 77.6016 222.5 79L222.099 82M215.5 76.5L215.141 82M215.5 76.5L215.731 72.75M215.141 82H222.099M215.141 82L214.815 87M222.099 82L221.432 87M221.432 87H214.815M221.432 87L220.83 91.5M214.815 87L214.522 91.5M214.522 91.5H220.83M214.522 91.5L214.196 96.5M220.83 91.5L220.163 96.5M220.163 96.5H214.196M213.789 101.5H219.5M218 36L215.963 69M218 36H234L230 67C228.5 72.5 222.053 74.0444 215.731 72.75M215.963 69H162.394M215.963 69L212 65M215.963 69L215.731 72.75M162.394 69L167 65M167 65V40H212V65M167 65H212M240 36C252.413 23.1586 261.76 19.554 287 26M287 26L280.5 28.5M287 26C305.974 21.7308 322.135 25.6745 333.883 34.789M233.5 55.5C248.591 32.8992 257.835 23.1181 280.5 28.5M280.5 28.5C271.47 32.7404 266.65 35.9596 259 45M259 45C247.554 41.8706 244.32 46.4592 241.5 60.5M259 45C253.537 52.2591 251.839 56.5779 250 64.5M241.5 60.5L250 64.5M241.5 60.5C233.644 63.7992 238 69 248 73M250 64.5C249.094 68.1623 248.683 69.9457 248 73M248 73L247 85.5M247 85.5C247 97 250.545 105.238 260 116.5M247 85.5C239.153 86.2838 231.5 95.5 230.5 102.5C229.791 112.842 227.858 117.17 224 124.5M260 116.5C249.208 116.084 241.892 117.222 224 124.5M260 116.5L263 120.5M224 124.5C215.475 131.135 218.175 157.943 227.5 205.501M263 120.5L273.5 129.5M263 120.5H258.5C253 121 256.5 132.5 262 132.5H269C271 132.5 272 131 273.5 129.5M273.5 129.5L279.5 133.5M227.5 205.501C230.344 188.872 234.5 187 247 183.5C271.224 178.467 286.01 176.555 313.5 178C347.072 180.722 358.864 186.607 372 202M227.5 205.501L233 240.002M279.5 133.5L292 137M279.5 133.5L277.5 151C277.5 153.5 278.5 155.5 282 155.5H287.5C289.5 155.5 291.5 154 291.5 152L292 137M292 137C325 139.5 354 112 354.5 83V80C354.5 67.6256 351.159 56.2233 345.111 47M345.111 47H355C357.5 47 359.161 46.0897 361.5 43.5L372 30.5M345.111 47C344.688 46.3544 344.251 45.7195 343.802 45.0956M343.802 45.0956L372 15.5M343.802 45.0956C340.988 41.192 337.664 37.7227 333.883 34.789M372 1C358.197 16.4252 350.387 24.9248 333.883 34.789M285 123.781C289.921 125.758 295.048 126.742 300 126.5C302.489 126.379 305.047 126.043 307.62 125.5M285 123.781C285.267 120.18 285.244 117.376 284.827 115M285 123.781C280.958 122.158 277.054 119.865 273.5 117.031M273 92.5C273.761 98.0247 274.829 100.961 279.5 105.5C282.532 108.574 284.169 111.258 284.827 115M273 92.5C266.965 90.4954 263.583 89.4433 257.76 93.5M273 92.5C277.92 93.576 279.44 91.8287 281 86.5C282.319 81.4676 280.435 77.0736 275 68M257.76 93.5C256.875 90.1334 256.426 86.6157 256.5 83C256.569 79.6243 256.856 76.2729 257.381 73M257.76 93.5C260.233 102.909 266.111 111.139 273.5 117.031M275 68C267.395 71.6183 263.645 72.4625 257.381 73M275 68C279.365 66.363 283.344 65.1711 287 64.3619M257.381 73C257.82 70.2683 258.424 67.5911 259.205 65M284.827 115L273.5 117.031M259.205 65L266 64M259.205 65C260.735 59.9247 262.945 55.1793 265.92 51M266 64C266.475 58.8667 266.311 56.036 265.92 51M266 64H269.643M265.92 51C267.049 49.4142 268.289 47.9099 269.643 46.5M269.643 46.5V64M269.643 46.5C270.655 45.4454 271.732 44.4436 272.876 43.5M269.643 64C275.71 63.5187 279.111 63.2491 284 63V43.5H272.876M272.876 43.5C279.538 38.001 288.451 34.4784 300 34C310.626 33.5598 319.199 36.0064 325.9 40.5M322.5 71C325.602 69.0139 327.362 68.1839 330.5 67M322.5 71C319.046 68.6679 315.483 66.6313 311.5 65.1958M322.5 71L327 74.5M330.5 67C329.565 57.1388 328.258 51.1672 325.9 40.5M330.5 67C336.224 66.1524 338.765 66.371 343.067 67M325.9 40.5C334.73 46.4204 340.312 55.894 343.067 67M343.067 67C343.551 68.953 343.948 70.9565 344.26 73M287 64.3619C286.071 52.3682 291 45.5 299.5 45.5C308 46 313.283 52.9009 311.5 65.1958M287 64.3619C297.234 62.0967 304.937 62.8303 311.5 65.1958M327 74.5C328.981 75.4716 330.716 76.2559 332.307 76.855M327 74.5C326.299 82.453 325.322 86.8172 323 94.5M344.805 77.5C344.969 79.3113 345.07 81.1469 345.111 83C345.254 89.5175 343.895 95.3649 341.46 100.5M344.805 77.5C344.667 75.9816 344.486 74.4803 344.26 73M344.805 77.5C340.224 78.7663 336.855 78.5678 332.307 76.855M344.26 73L332.307 76.855M323 94.5C333.006 94.5235 338.584 94.5631 341.46 100.5M323 94.5C319.502 103.205 316.204 106.548 309 111L308.524 116M341.46 100.5C338.035 107.726 332.483 113.541 326 117.828M307.62 125.5L308.524 116M307.62 125.5C313.926 124.168 320.32 121.584 326 117.828M308.524 116L326 117.828M179 196.001C185.624 199.282 188.625 201.501 187.5 206.001C186 212.001 181 215.001 174.5 215.501H173C164.862 215.587 157 212.001 158 205.501C159 200.001 161.801 197.847 168.5 196.001C163.176 193.65 160 191.001 160.5 186.501C162 179.501 168 176.501 173 176.501H174.5C182.524 177.698 188 180.501 188 186.501C188 190.001 183.9 193.803 179 196.001ZM42.5 49L41 75C41 77 40.9071 77.6857 39.5 79C33.5 83 24.5 82.5 24 79V61C24 56 30.8802 51.0757 39 48C41.5 47.053 42.5 47.5 42.5 49ZM149 42.5C148.5 38.5 156 38 156 42L157.5 63.5C157.5 66 153.5 68 152.5 64L149 42.5ZM169 95.5V73H209V95.5H169ZM226 64.5C225 67.5 220.5 66.5 220.5 64.5L221.5 42.5C221.5 39.5 229 38 229.5 43L226 64.5ZM240 157C239 161.5 231 160.5 230.5 157L226.5 135.5C226 132.5 227.5 131.5 229.5 131.5H234.5C237.5 131.5 239.5 133 239.5 136L240 157Z" stroke="black" stroke-width="2" stroke-linecap="round" stroke-linejoin="round"/>
</svg>
