<svg width="348" height="233" viewBox="0 0 348 233" fill="none" xmlns="http://www.w3.org/2000/svg">
<path d="M347 61.5L216 44M216 44V1M216 44C201.199 48.1728 192.746 48.6664 177.5 47.5M177.5 47.5C181.331 25.3078 183.746 13.8292 191 4M177.5 47.5C171.126 47.078 164.493 44.4599 151 38.5M177.5 47.5C183.709 51.6051 185.3 54.587 186.5 60.5M151 38.5C143.307 31.2581 137.204 28.2249 126 23M151 38.5C190.5 78 186.5 141.5 132.5 169.5M166 4C153.447 18.9637 144.594 22.8859 126 23M126 23C109.5 16 85.5 16.5 71 21.5M1 27C31.5 29.5 59.5 22 71 21.5M71 21.5C45.5 32 29 48 20 75M1 77C8.2571 75.212 12.3902 74.6072 20 75M20 75C16.8616 86.5358 16.3514 93.1176 17 105M1 110C7.14975 107.297 10.6435 106.125 17 105M17 105C19.0739 120.195 21.54 127.778 28.5 139.5M1 171C7.34747 167.47 12.3524 164.725 16.633 160.5M28.5 139.5C24.8666 149.927 21.1537 156.038 16.633 160.5M28.5 139.5C51.5 173 88 186 132.5 169.5M25 225C19.0773 200.11 17.7924 185.925 16.633 160.5M132.5 169.5C135.936 186.321 138.211 195.406 155 199C174.766 201.766 183.622 207.927 196 226M37 73.5C39.3292 83.5938 42.7111 87.6052 56 89M37 73.5L31.5 84.5C28.5 91 31.5 96.5 42.5 96.5L56 89M37 73.5C40.9463 65.2839 45.4869 58.3066 50.4583 52.5M56 89C61.316 85.4198 66.9615 82.028 72.7426 79.0952M84.5 73.8948C84.4264 74.3115 80.5 69.7307 80.5 64.5C80.5 62 81 49.5 96.5 48.5C112 47.5 114.5 62 114.5 66C114.5 70 114.5 69.7307 114.5 69.7307M84.5 73.8948C94.8359 70.033 105.188 68.1538 114.5 69.7307M84.5 73.8948C80.559 75.3673 76.6203 77.128 72.7426 79.0952M114.5 69.7307C120.74 70.7875 126.512 73.3961 131.5 78C135.073 81.6086 138 84.5 142.5 84.5H155C159.5 84.5 162.198 79 159.5 73.5C136.864 27.3575 83.9095 13.4286 50.4583 52.5M72.7426 79.0952C76.5 64 69 52.5 50.4583 52.5M186.5 60.5C192.531 60.6117 193 61 202.5 63.5C212 66 334.5 98 334.5 98M186.5 60.5C188.234 68.0219 189.18 74.0987 189.627 80M221 231.5C186 211.5 165.025 172.509 179.5 121C181.761 114.851 183.75 111.274 189.5 104.5C189.956 94.8396 190.201 87.564 189.627 80M189.627 80L200 82.8449M330 118.5L227.5 90.3873M227.5 90.3873L200 82.8449M227.5 90.3873C226.228 87.0162 224.925 84.1807 223.5 81.7892M200 82.8449L197.66 76.5M223.5 81.7892C218.419 73.2636 211.788 70.3819 199.5 69C195.054 68.5 195 69.5 196 72L197.66 76.5M223.5 81.7892C213.514 77.7268 207.885 76.027 197.66 76.5M334 175L293 152.5C288.654 150.318 285.625 149.407 281.774 149.688M338 210.5L253.5 174C239.884 167.701 232.5 163 223 152.5C207 133.5 204 110 208 94C208.904 91.1039 209.956 90.2327 213.5 91C218.701 92.9309 221.18 94.4033 224.5 98C217.593 101.481 213 114.5 218.5 122.5C220.682 125.386 222.556 127.865 224.311 130.187M281.774 149.688C280.335 149.794 278.781 150.066 277 150.5C257.5 155.5 241.5 154 235.5 145C231.139 139.222 227.985 135.048 224.311 130.187M281.774 149.688L224.311 130.187M132.5 148.5L135.5 116.5C136 113.5 136.5 112.519 140 112C147.819 110.841 152.057 109.765 159.5 107.5C162 107 165.5 108 164 113.5C159.8 130.088 154.921 137.987 142.5 150C139.797 152.614 132.5 153.5 132.5 148.5ZM73.5 121.5L56.5 122C49.5767 122.159 43.5 124.5 42.5 131C41 141.5 63.2278 154.019 87 160.5C95.1091 162.711 100.5 158 95.5 150L79 124C77.5 122 76.0909 121.388 73.5 121.5ZM304.5 225C307.5 225.5 309 224 307.5 221.5C294.3 199.5 279 192 256 181L197.5 155C189 151.5 184 153.5 187.5 161.5L204.5 192.5C206.5 195.5 208 195.5 211 196.5L304.5 225Z" stroke="black" stroke-width="2" stroke-linecap="round" stroke-linejoin="round"/>
</svg>
